#!OML:ASF E:\motion texture\Top Level 1\Subject 1\Session 1\male.ASF
:FULLY-SPECIFIED
:DEGREES
489
root -14.2683 17.8311 4.25113 993.049 -87.0039 -996.635
lowerback 4.06931 -2.59459 -3.38543
upperback -0.356471 -3.60382 0.96855
thorax -2.3754 -1.74898 3.10353
lowerneck -19.8927 -1.79234 -4.27221
upperneck 14.5068 -2.26259 5.35709
head 7.85558 -0.783178 2.20241
rclavicle -2.75068e-014 -3.97569e-015
rhumerus -45.2722 -9.04796 -76.1693
rradius 35.5971
rwrist 2.08229
rhand -13.2611 -9.82094
rfingers 7.12502
rthumb 12.8415 -39.4059
lclavicle -2.75068e-014 -3.97569e-015
lhumerus -14.4062 -4.81012 91.3572
lradius 39.652
lwrist -4.36987
lhand -12.5959 16.6841
lfingers 7.12502
lthumb 13.4827 46.2277
rfemur -56.775 -8.31578 16.3577
rtibia 73.9181
rfoot 567.095 7.93847
rtoes 24.6755
lfemur -5.66075 -6.87639 -27.7538
ltibia 24.0228
lfoot 1069.49 -1.2066
ltoes 2.08288
490
root -14.4105 17.8569 4.24399 1002.59 -86.8916 -1006.32
lowerback 4.29549 -2.82328 -3.51265
upperback -0.311019 -3.92054 1.07358
thorax -2.41525 -1.9049 3.31043
lowerneck -19.8563 -1.74247 -4.27448
upperneck 14.5259 -2.18365 5.29454
head 7.85076 -0.75239 2.19185
rclavicle -2.94201e-014 -3.18055e-015
rhumerus -46.6119 -9.83525 -74.7464
rradius 34.4414
rwrist 3.18604
rhand -13.1155 -9.48442
rfingers 7.12502
rthumb 12.9819 -39.0605
lclavicle -2.94201e-014 -3.18055e-015
lhumerus -12.9103 -5.5722 91.2248
lradius 40.5843
lwrist -3.67584
lhand -12.6182 16.8172
lfingers 7.12502
lthumb 13.4612 46.3622
rfemur -59.6291 -8.61742 16.618
rtibia 73.7343
rfoot 567.324 8.22624
rtoes 25.3039
lfemur -4.57284 -7.27788 -27.9526
ltibia 23.3135
lfoot 1069.33 -1.22394
ltoes 2.04476
491
root -14.555 17.8814 4.23642 1010.67 -86.7428 -1014.45
lowerback 4.43675 -3.03055 -3.60571
upperback -0.299326 -4.20441 1.18827
thorax -2.44412 -2.04456 3.50365
lowerneck -19.8215 -1.70394 -4.28403
upperneck 14.5731 -2.12037 5.23738
head 7.85656 -0.728881 2.18254
rclavicle 1.49089e-016 2.06736e-014
rhumerus -47.9781 -10.4034 -73.3791
rradius 33.4297
rwrist 4.33471
rhand -13.0121 -9.14991
rfingers 7.12502
rthumb 13.0815 -38.7197
lclavicle 1.49089e-016 2.06736e-014
lhumerus -11.4751 -6.33065 91.0365
lradius 41.5013
lwrist -2.94607
lhand -12.629 16.9528
lfingers 7.12502
lthumb 13.4508 46.4985
rfemur -62.434 -8.82112 16.8724
rtibia 73.8147
rfoot 567.438 8.40365
rtoes 25.7931
lfemur -3.56583 -7.68407 -28.114
ltibia 22.6178
lfoot 1069.16 -1.18219
ltoes 1.96339
492
root -14.7012 17.9046 4.22855 1017.44 -86.5752 -1021.22
lowerback 4.52524 -3.2189 -3.67688
upperback -0.319653 -4.46024 1.31269
thorax -2.47771 -2.1698 3.69166
lowerneck -19.799 -1.67555 -4.30375
upperneck 14.6593 -2.07062 5.18702
head 7.87841 -0.711511 2.17582
rclavicle -2.12948e-014 3.18055e-015
rhumerus -49.3579 -10.7242 -72.1132
rradius 32.5703
rwrist 5.36993
rhand -12.9247 -8.85181
rfingers 7.12502
rthumb 13.1658 -38.4161
lclavicle -2.12948e-014 3.18055e-015
lhumerus -10.0894 -7.06795 90.7965
lradius 42.3868
lwrist -2.22648
lhand -12.6585 17.0481
lfingers 7.12502
lthumb 13.4224 46.5956
rfemur -65.1597 -8.94267 17.1054
rtibia 74.1421
rfoot 567.452 8.43934
rtoes 26.1625
lfemur -2.6318 -8.0741 -28.2416
ltibia 21.9544
lfoot 1068.96 -1.10653
ltoes 1.83392
493
root -14.8488 17.9264 4.22024 1023.05 -86.4079 -1026.79
lowerback 4.58366 -3.38624 -3.73022
upperback -0.362073 -4.68612 1.44521
thorax -2.51899 -2.2797 3.87578
lowerneck -19.7771 -1.65241 -4.32238
upperneck 14.7619 -2.02961 5.13955
head 7.90633 -0.698008 2.16893
rclavicle 3.08365e-014 -1.82882e-014
rhumerus -50.7443 -10.7884 -70.9954
rradius 31.8809
rwrist 6.15504
rhand -12.8273 -8.61073
rfingers 7.12502
rthumb 13.2597 -38.169
lclavicle 3.08365e-014 -1.82882e-014
lhumerus -8.75178 -7.78179 90.5099
lradius 43.248
lwrist -1.555
lhand -12.679 17.1342
lfingers 7.12502
lthumb 13.4026 46.683
rfemur -67.7725 -8.98492 17.3099
rtibia 74.7059
rfoot 567.395 8.29672
rtoes 26.3834
lfemur -1.73958 -8.43987 -28.3353
ltibia 21.3024
lfoot 1068.76 -1.00709
ltoes 1.70621
494
root -14.997 17.9467 4.21157 1027.81 -86.2534 -1031.5
lowerback 4.64016 -3.53782 -3.76619
upperback -0.415215 -4.88998 1.58414
thorax -2.57177 -2.37831 4.0564
lowerneck -19.7785 -1.63325 -4.34251
upperneck 14.8909 -1.99552 5.1008
head 7.94758 -0.68674 2.1646
rclavicle 5.74736e-014 -1.66979e-014
rhumerus -52.1084 -10.6059 -70.0629
rradius 31.3553
rwrist 6.622
rhand -12.7209 -8.43431
rfingers 7.12502
rthumb 13.3622 -37.9858
lclavicle 5.74736e-014 -1.66979e-014
lhumerus -7.45106 -8.45374 90.172
lradius 44.0818
lwrist -0.967462
lhand -12.6966 17.1766
lfingers 7.12502
lthumb 13.3857 46.7266
rfemur -70.2361 -8.96569 17.4876
rtibia 75.4854
rfoot 567.287 7.94225
rtoes 26.4519
lfemur -0.869246 -8.77172 -28.3911
ltibia 20.6645
lfoot 1068.56 -0.901921
ltoes 1.58453
495
root -15.146 17.9653 4.20243 1031.82 -86.1129 -1035.49
lowerback 4.71619 -3.6744 -3.79353
upperback -0.467176 -5.0741 1.72448
thorax -2.63559 -2.46687 4.23451
lowerneck -19.789 -1.61215 -4.37082
upperneck 15.0221 -1.96179 5.0903
head 7.99158 -0.673261 2.17112
rclavicle 1.4561e-014 1.66979e-014
rhumerus -53.4311 -10.2285 -69.3119
rradius 30.9642
rwrist 6.81979
rhand -12.5903 -8.3026
rfingers 7.12502
rthumb 13.4881 -37.8458
lclavicle 1.4561e-014 1.66979e-014
lhumerus -6.19635 -9.07577 89.7865
lradius 44.9119
lwrist -0.480431
lhand -12.6924 17.2187
lfingers 7.12502
lthumb 13.3897 46.7684
rfemur -72.5126 -8.89768 17.6294
rtibia 76.4602
rfoot 567.149 7.37428
rtoes 26.4107
lfemur 0.00418404 -9.05368 -28.4184
ltibia 20.0395
lfoot 1068.38 -0.808604
ltoes 1.47563
496
root -15.2947 17.9819 4.19312 1035.33 -85.9878 -1038.98
lowerback 4.82577 -3.80146 -3.80871
upperback -0.508674 -5.24601 1.86344
thorax -2.70875 -2.54943 4.40652
lowerneck -19.8244 -1.59109 -4.38985
upperneck 15.1537 -1.93053 5.08369
head 8.04017 -0.659727 2.17718
rclavicle 7.61842e-014 -2.94201e-014
rhumerus -54.6908 -9.70726 -68.7288
rradius 30.6886
rwrist 6.84898
rhand -12.4255 -8.20938
rfingers 7.12502
rthumb 13.6469 -37.742
lclavicle 7.61842e-014 -2.94201e-014
lhumerus -4.98257 -9.64025 89.3498
lradius 45.7421
lwrist -0.113511
lhand -12.6687 17.2602
lfingers 7.12502
lthumb 13.4126 46.8084
rfemur -74.5829 -8.79864 17.7392
rtibia 77.6019
rfoot 566.987 6.59683
rtoes 26.2326
lfemur 0.884138 -9.28042 -28.416
ltibia 19.4386
lfoot 1068.21 -0.742823
ltoes 1.36647
497
root -15.4435 17.9967 4.1834 1038.36 -85.8764 -1042.03
lowerback 4.97338 -3.91903 -3.81585
upperback -0.538189 -5.40613 1.99687
thorax -2.79237 -2.62614 4.57095
lowerneck -19.8662 -1.56507 -4.40062
upperneck 15.2616 -1.89572 5.08782
head 8.08183 -0.642887 2.1858
rclavicle -4.57453e-014 -2.94201e-014
rhumerus -55.8854 -9.09181 -68.2896
rradius 30.5059
rwrist 6.81953
rhand -12.2296 -8.13338
rfingers 7.12502
rthumb 13.8358 -37.6532
lclavicle -4.57453e-014 -2.94201e-014
lhumerus -3.82681 -10.1456 88.8683
lradius 46.5902
lwrist 0.134073
lhand -12.6235 17.2797
lfingers 7.12502
lthumb 13.4561 46.8251
rfemur -76.4406 -8.67801 17.8193
rtibia 78.8807
rfoot 566.828 5.6517
rtoes 25.999
lfemur 1.76587 -9.43916 -28.3867
ltibia 18.8726
lfoot 1068.05 -0.720407
ltoes 1.24787
498
root -15.5917 18.0091 4.17364 1041 -85.7823 -1044.71
lowerback 5.14913 -4.02938 -3.81098
upperback -0.553905 -5.55687 2.12244
thorax -2.87954 -2.69851 4.72254
lowerneck -19.9218 -1.53693 -4.40307
upperneck 15.3516 -1.85992 5.09632
head 8.11982 -0.624446 2.19456
rclavicle 2.14936e-014 -5.56597e-015
rhumerus -57.0025 -8.42217 -67.968
rradius 30.3912
rwrist 6.82089
rhand -12.0087 -8.05816
rfingers 7.12502
rthumb 14.0487 -37.5634
lclavicle 2.14936e-014 -5.56597e-015
lhumerus -2.7383 -10.5985 88.3395
lradius 47.472
lwrist 0.285877
lhand -12.5593 17.3052
lfingers 7.12502
lthumb 13.5179 46.8465
rfemur -78.0881 -8.54451 17.8794
rtibia 80.4641
rfoot 566.724 -7.01352
rtoes 25.6898
lfemur 2.64593 -9.53924 -28.3331
ltibia 18.3353
lfoot 1067.91 -0.736453
ltoes 1.12996
